<?xml version="1.0" encoding="utf-8"?>
<!-- Generator: Adobe Illustrator 16.0.0, SVG Export Plug-In . SVG Version: 6.00 Build 0)  -->
<!DOCTYPE svg PUBLIC "-//W3C//DTD SVG 1.1//EN" "http://www.w3.org/Graphics/SVG/1.1/DTD/svg11.dtd">
<svg version="1.1" id="Camada_1" xmlns="http://www.w3.org/2000/svg" xmlns:xlink="http://www.w3.org/1999/xlink" x="0px" y="0px"
	 width="25px" height="25px" viewBox="0 0 25 25" enable-background="new 0 0 25 25" xml:space="preserve">
<g>
	
		<linearGradient id="SVGID_1_" gradientUnits="userSpaceOnUse" x1="-219.0532" y1="115.9004" x2="-194.1001" y2="115.9004" gradientTransform="matrix(1 0 0 -1 219.1001 128.4004)">
		<stop  offset="0" style="stop-color:#36FEFE"/>
		<stop  offset="1" style="stop-color:#000000"/>
	</linearGradient>
	<path fill="url(#SVGID_1_)" d="M19.585,18.404c-3.272-1.193-4.317-2.198-4.317-4.352c0-1.295,0.998-0.871,1.438-3.24
		c0.183-0.982,1.063-0.016,1.231-2.258c0-0.894-0.48-1.116-0.48-1.116s0.245-1.322,0.341-2.34c0.119-1.268-0.731-4.544-5.274-4.544
		c-4.541,0-5.392,3.275-5.273,4.543c0.096,1.018,0.341,2.34,0.341,2.34S7.109,7.661,7.109,8.555
		c0.168,2.242,1.051,1.276,1.233,2.258c0.439,2.369,1.438,1.946,1.438,3.238c0,2.154-1.045,3.16-4.317,4.352
		C2.18,19.6,0.047,20.818,0.047,21.65s0,2.795,0,2.795h12.476H25c0,0,0-1.963,0-2.795S22.868,19.6,19.585,18.404z"/>
</g>
</svg>
