<?xml version="1.0" encoding="utf-8"?>
<!-- Generator: Adobe Illustrator 16.0.0, SVG Export Plug-In . SVG Version: 6.00 Build 0)  -->
<!DOCTYPE svg PUBLIC "-//W3C//DTD SVG 1.1//EN" "http://www.w3.org/Graphics/SVG/1.1/DTD/svg11.dtd">
<svg version="1.1" id="圖層_1" xmlns="http://www.w3.org/2000/svg" xmlns:xlink="http://www.w3.org/1999/xlink" x="0px" y="0px"
	 width="1280px" height="800px" viewBox="0 0 1280 800" enable-background="new 0 0 1280 800" xml:space="preserve">
<rect x="179.5" y="109.5" fill="#FFFFFF" stroke="#000000" stroke-miterlimit="10" width="573" height="270"/>
<rect x="386.5" y="129.5" fill="#FFFFFF" stroke="#000000" stroke-miterlimit="10" width="150" height="82"/>
<rect x="220.5" y="267.5" fill="#FFFFFF" stroke="#000000" stroke-miterlimit="10" width="173" height="88"/>
<rect x="544.5" y="267.5" fill="#FFFFFF" stroke="#000000" stroke-miterlimit="10" width="173" height="88"/>
<path fill="none" stroke="#000000" stroke-miterlimit="10" d="M295.757,244.5c0-29.288,27.198-52.986,60.811-52.986"/>
<path fill="none" stroke="#000000" stroke-miterlimit="10" d="M631.081,243.324c0-28.383-30.221-51.351-67.567-51.351"/>
<path fill="none" stroke="#000000" stroke-miterlimit="10" d="M421.433,336.108c0-0.747,40.496-1.351,90.541-1.351"/>
<line fill="none" stroke="#000000" stroke-miterlimit="10" x1="289" y1="223.946" x2="295.757" y2="244.5"/>
<line fill="none" stroke="#000000" stroke-miterlimit="10" x1="295.757" y1="244.5" x2="307" y2="234.223"/>
<line fill="none" stroke="#000000" stroke-miterlimit="10" x1="614.676" y1="234.223" x2="631.081" y2="243.324"/>
<line fill="none" stroke="#000000" stroke-miterlimit="10" x1="640" y1="223.946" x2="631.081" y2="243.324"/>
<line fill="none" stroke="#000000" stroke-miterlimit="10" x1="334.946" y1="180.703" x2="356.567" y2="191.514"/>
<line fill="none" stroke="#000000" stroke-miterlimit="10" x1="356.567" y1="191.514" x2="334.946" y2="211.5"/>
<line fill="none" stroke="#000000" stroke-miterlimit="10" x1="563.514" y1="191.973" x2="570.081" y2="201.507"/>
<line fill="none" stroke="#000000" stroke-miterlimit="10" x1="563.514" y1="191.973" x2="576.838" y2="186.108"/>
<line fill="none" stroke="#000000" stroke-miterlimit="10" x1="421.433" y1="336.108" x2="436.297" y2="317.189"/>
<line fill="none" stroke="#000000" stroke-miterlimit="10" x1="421.433" y1="336.108" x2="436.297" y2="355.5"/>
<line fill="none" stroke="#000000" stroke-miterlimit="10" x1="494.405" y1="317.189" x2="511.973" y2="334.757"/>
<line fill="none" stroke="#000000" stroke-miterlimit="10" x1="494.405" y1="355.5" x2="511.973" y2="334.757"/>
<line fill="none" stroke="#000000" stroke-miterlimit="10" x1="306.5" y1="366" x2="306.5" y2="487"/>
<line fill="none" stroke="#000000" stroke-miterlimit="10" x1="306.5" y1="366" x2="289" y2="392.865"/>
<line fill="none" stroke="#000000" stroke-miterlimit="10" x1="306.5" y1="366" x2="317.378" y2="392.865"/>
<line fill="none" stroke="#000000" stroke-miterlimit="10" x1="289" y1="460.433" x2="306.5" y2="487"/>
<line fill="none" stroke="#000000" stroke-miterlimit="10" x1="317.378" y1="465.838" x2="306.5" y2="487"/>
<rect x="225.5" y="501.5" fill="none" width="173" height="88"/>
<text transform="matrix(1 0 0 1 225.5 519.9805)"><tspan x="0" y="0" font-family="'AdobeMingStd-Light-B5pc-H'" font-size="21">     </tspan><tspan x="0" y="25.199" font-family="'AdobeMingStd-Light-B5pc-H'" font-size="21">     User Interface </tspan></text>
<line fill="none" stroke="#000000" stroke-miterlimit="10" x1="874.131" y1="161.672" x2="579.708" y2="163.105"/>
<line fill="none" stroke="#000000" stroke-miterlimit="10" x1="874.131" y1="161.672" x2="808.676" y2="144.49"/>
<line fill="none" stroke="#000000" stroke-miterlimit="10" x1="874.131" y1="161.672" x2="808.815" y2="172.868"/>
<line fill="none" stroke="#000000" stroke-miterlimit="10" x1="644.268" y1="145.291" x2="579.708" y2="163.105"/>
<line fill="none" stroke="#000000" stroke-miterlimit="10" x1="631.253" y1="173.733" x2="579.708" y2="163.105"/>
<rect x="921.5" y="117.5" fill="#FFFFFF" stroke="#000000" stroke-miterlimit="10" width="173" height="88"/>
<text transform="matrix(1 0 0 1 411.9731 161.7837)"><tspan x="0" y="0" font-family="'AdobeMingStd-Light-B5pc-H'" font-size="21"> Domain </tspan><tspan x="0" y="25.2" font-family="'AdobeMingStd-Light-B5pc-H'" font-size="21">  Model </tspan></text>
<text transform="matrix(1 0 0 1 255.2163 316.7139)"><tspan x="0" y="0" font-family="'AdobeMingStd-Light-B5pc-H'" font-size="21"> Tutoring </tspan><tspan x="0" y="25.2" font-family="'AdobeMingStd-Light-B5pc-H'" font-size="21">   Model</tspan></text>
<text transform="matrix(1 0 0 1 582.2432 312.6597)"><tspan x="0" y="0" font-family="'AdobeMingStd-Light-B5pc-H'" font-size="21">  Student </tspan><tspan x="0" y="25.2" font-family="'AdobeMingStd-Light-B5pc-H'" font-size="21">    Model</tspan></text>
<text transform="matrix(1 0 0 1 955.2168 172.1191)" font-family="'AdobeMingStd-Light-B5pc-H'" font-size="21">    Data </text>
</svg>
